{
  "accessors": [
    {
      "bufferView": 2,
      "componentType": 5126,
      "count": 14053,
      "max": [
        19.630069732666016,
        179.0153045654297,
        63.08341598510742
      ],
      "min": [
        -176.37014770507813,
        -15.89029598236084,
        -159.75396728515625
      ],
      "type": "VEC3"
    },
    {
      "bufferView": 2,
      "byteOffset": 168636,
      "componentType": 5126,
      "count": 14053,
      "max": [
        1.0,
        1.0,
        1.0
      ],
      "min": [
        -1.0,
        -1.0,
        -1.0
      ],
      "type": "VEC3"
    },
    {
      "bufferView": 3,
      "componentType": 5126,
      "count": 14053,
      "max": [
        1.0,
        1.0,
        1.0,
        1.0
      ],
      "min": [
        -1.0,
        -1.0,
        -1.0,
        -1.0
      ],
      "type": "VEC4"
    },
    {
      "bufferView": 1,
      "componentType": 5126,
      "count": 14053,
      "max": [
        0.9926249384880066,
        0.9921284914016724
      ],
      "min": [
        0.007649719715118408,
        0.0068912506103515625
      ],
      "type": "VEC2"
    },
    {
      "bufferView": 1,
      "byteOffset": 112424,
      "componentType": 5126,
      "count": 14053,
      "max": [
        0.9926249384880066,
        0.9921284914016724
      ],
      "min": [
        0.007649719715118408,
        0.0068912506103515625
      ],
      "type": "VEC2"
    },
    {
      "bufferView": 0,
      "componentType": 5125,
      "count": 42546,
      "type": "SCALAR"
    }
  ],
  "asset": {
    "extras": {
      "author": "dannpastor (https://sketchfab.com/dannpastor)",
      "license": "SKETCHFAB Standard (https://sketchfab.com/licenses)",
      "source": "https://sketchfab.com/3d-models/hand-tool-set-low-poly-be3a2c8cf854490eb767932577b6f2e7",
      "title": "Hand Tool Set (Low Poly)"
    },
    "generator": "Sketchfab-13.47.0",
    "version": "2.0"
  },
  "bufferViews": [
    {
      "buffer": 0,
      "byteLength": 170184,
      "name": "floatBufferViews",
      "target": 34963
    },
    {
      "buffer": 0,
      "byteLength": 224848,
      "byteOffset": 170184,
      "byteStride": 8,
      "name": "floatBufferViews",
      "target": 34962
    },
    {
      "buffer": 0,
      "byteLength": 337272,
      "byteOffset": 395032,
      "byteStride": 12,
      "name": "floatBufferViews",
      "target": 34962
    },
    {
      "buffer": 0,
      "byteLength": 224848,
      "byteOffset": 732304,
      "byteStride": 16,
      "name": "floatBufferViews",
      "target": 34962
    }
  ],
  "buffers": [
    {
      "byteLength": 957152,
      "uri": "scene.bin"
    }
  ],
  "images": [
    {
      "uri": "textures/tools_baseColor.jpeg"
    },
    {
      "uri": "textures/tools_metallicRoughness.png"
    },
    {
      "uri": "textures/tools_normal.png"
    }
  ],
  "materials": [
    {
      "doubleSided": true,
      "name": "tools",
      "normalTexture": {
        "index": 2
      },
      "pbrMetallicRoughness": {
        "baseColorTexture": {
          "index": 0
        },
        "metallicRoughnessTexture": {
          "index": 1
        }
      }
    }
  ],
  "meshes": [
    {
      "name": "ToolBox_tools_0",
      "primitives": [
        {
          "attributes": {
            "NORMAL": 1,
            "POSITION": 0,
            "TANGENT": 2,
            "TEXCOORD_0": 3,
            "TEXCOORD_1": 4
          },
          "indices": 5,
          "material": 0,
          "mode": 4
        }
      ]
    }
  ],
  "nodes": [
    {
      "children": [
        1
      ],
      "matrix": [
        0.002948441542685032,
        0.0,
        0.0,
        0.0,
        0.0,
        6.546855374900477e-19,
        -0.002948441542685032,
        0.0,
        0.0,
        0.002948441542685032,
        6.546855374900477e-19,
        0.0,
        0.0,
        0.0,
        0.0,
        1.0
      ],
      "name": "Sketchfab_model"
    },
    {
      "children": [
        2
      ],
      "matrix": [
        1.0,
        0.0,
        0.0,
        0.0,
        0.0,
        0.0,
        1.0,
        0.0,
        0.0,
        -1.0,
        0.0,
        0.0,
        0.0,
        0.0,
        0.0,
        1.0
      ],
      "name": "f6884b50acea403a9cc52902775572c0.fbx"
    },
    {
      "children": [
        3
      ],
      "name": "RootNode"
    },
    {
      "children": [
        4
      ],
      "matrix": [
        1.0,
        0.0,
        0.0,
        0.0,
        0.0,
        0.1736481776669303,
        -0.9848077530122081,
        0.0,
        0.0,
        0.9848077530122081,
        0.1736481776669303,
        0.0,
        78.37004089355469,
        129.21983337402344,
        313.1443176269531,
        1.0
      ],
      "name": "ToolBox"
    },
    {
      "mesh": 0,
      "name": "ToolBox_tools_0"
    }
  ],
  "samplers": [
    {
      "magFilter": 9729,
      "minFilter": 9987,
      "wrapS": 10497,
      "wrapT": 10497
    }
  ],
  "scene": 0,
  "scenes": [
    {
      "name": "Sketchfab_Scene",
      "nodes": [
        0
      ]
    }
  ],
  "textures": [
    {
      "sampler": 0,
      "source": 0
    },
    {
      "sampler": 0,
      "source": 1
    },
    {
      "sampler": 0,
      "source": 2
    }
  ]
}
