<svg xmlns="http://www.w3.org/2000/svg" version="1.1" xmlns:xlink="http://www.w3.org/1999/xlink" xmlns:svgjs="http://svgjs.dev/svgjs" width="2000" height="1247" viewBox="0 0 2000 1247"><g transform="matrix(1,0,0,1,-1.2121212121212466,0.504858299595071)"><svg viewBox="0 0 396 247" data-background-color="#ffffff" preserveAspectRatio="xMidYMid meet" height="1247" width="2000" xmlns="http://www.w3.org/2000/svg" xmlns:xlink="http://www.w3.org/1999/xlink"><g id="tight-bounds" transform="matrix(1,0,0,1,0.2400000000000091,-0.09999999999999432)"><svg viewBox="0 0 395.52 247.2" height="247.2" width="395.52"><g><svg></svg></g><g><svg viewBox="0 0 395.52 247.2" height="247.2" width="395.52"><g><path d="M55.039 247.2l26.403-45.732h4.814l-23.865 41.335h270.738l-23.865-41.335 4.814 0 26.403 45.732zM197.76 0l26.403 45.732-4.813 0-21.59-37.395-21.59 37.395-4.813 0z" fill="#5d24ab" fill-rule="nonzero" stroke="none" stroke-width="1" stroke-linecap="butt" stroke-linejoin="miter" stroke-miterlimit="10" stroke-dasharray="" stroke-dashoffset="0" font-family="none" font-weight="none" font-size="none" text-anchor="none" style="mix-blend-mode: normal" data-fill-palette-color="tertiary"></path></g><g transform="matrix(1,0,0,1,43.786348962775605,67.97999999999999)"><svg viewBox="0 0 307.94730207444877 111.24" height="111.24" width="307.94730207444877"><g><svg viewBox="0 0 307.94730207444877 111.24" height="111.24" width="307.94730207444877"><g><svg viewBox="0 0 485.16481547225254 175.2563952" height="111.24" width="307.94730207444877"><g transform="matrix(1,0,0,1,189.8668138986884,32.008197599999995)"><svg viewBox="0 0 295.29800157356414 111.24" height="111.24" width="295.29800157356414"><g id="textblocktransform"><svg viewBox="0 0 295.29800157356414 111.24" height="111.24" width="295.29800157356414" id="textblock"><g><svg viewBox="0 0 295.29800157356414 111.24" height="111.24" width="295.29800157356414"><g transform="matrix(1,0,0,1,0,0)"><svg width="295.29800157356414" viewBox="-2.25 -45.3 171.24 65.25" height="111.24" data-palette-color="#0023ff"><path d="M4.85 10.55Q2.45 10.55 0.85 9.5-0.75 8.45-1.5 7.03-2.25 5.6-2.25 4.55L-2.25 4.55Q-2.25 3.35-1.3 2.35-0.35 1.35 0.85 0.95L0.85 0.95 1.3 0.85Q1.45 0.85 1.5 0.98 1.55 1.1 1.55 1.35L1.55 1.35Q1.85 4.15 2.8 5.98 3.75 7.8 6.5 7.8L6.5 7.8Q8.35 7.8 9.6 6.7 10.85 5.6 11.7 3.13 12.55 0.65 13.25-3.65L13.25-3.65 17.55-30.95 17.3-30.95Q16.3-30.95 14.65-31.3L14.65-31.3Q12.15-31.75 10.8-31.75L10.8-31.75Q8.45-31.75 7.3-31.13 6.15-30.5 5.1-29.4L5.1-29.4Q4.8-29.05 4.58-28.85 4.35-28.65 4.15-28.65L4.15-28.65Q3.8-28.65 3.8-29L3.8-29 3.85-29.55Q4.3-32.2 6.33-33.45 8.35-34.7 12.1-34.7L12.1-34.7Q13.7-34.7 15.45-34.45L15.45-34.45Q15.8-34.4 16.88-34.3 17.95-34.2 19.1-34.2L19.1-34.2Q20.15-34.2 20.78-34.3 21.4-34.4 22.2-34.7L22.2-34.7Q21.45-32.55 21.23-31.08 21-29.6 20.95-29.15L20.95-29.15 17.5-6.7Q16.2 1.65 12.9 6.1 9.6 10.55 4.85 10.55L4.85 10.55ZM25.7 0.5Q23.15 0.5 23.15-4.35L23.15-4.35Q23.15-9 25.17-13.53 27.2-18.05 30.65-20.93 34.1-23.8 38.1-23.8L38.1-23.8Q40.15-23.8 41.65-23.15L41.65-23.15Q41-20.6 40.75-19.4L40.75-19.4 39.7-14Q38.3-7.6 38-5.15L38-5.15Q37.95-4.8 37.95-4.3L37.95-4.3Q37.95-3.2 38.6-3.2L38.6-3.2Q39.4-3.2 40.1-4.23 40.8-5.25 41.7-7.15L41.7-7.15Q41.75-7.2 41.87-7.45 42-7.7 42.2-7.7L42.2-7.7Q42.5-7.7 42.5-7.1L42.5-7.1 42.4-6.3Q42.05-4.65 40.97-3.05 39.9-1.45 38.57-0.48 37.25 0.5 36.2 0.5L36.2 0.5Q34.45 0.5 34.45-2.35L34.45-2.35Q34.45-3.45 34.7-4.6L34.7-4.6 35.55-8.95 35.5-8.95Q33.1-4.75 30.37-2.13 27.65 0.5 25.7 0.5L25.7 0.5ZM28.05-3.6Q29.45-3.6 31.27-5.78 33.1-7.95 34.67-11.1 36.25-14.25 36.85-16.75L36.85-16.75 37.65-19.95Q36.15-20.95 34.5-20.95L34.5-20.95Q32.35-20.95 30.57-18.48 28.8-16 27.8-12.48 26.8-8.95 26.8-6.1L26.8-6.1Q26.8-4.85 27.07-4.23 27.35-3.6 28.05-3.6L28.05-3.6ZM47.4 19.95Q45.45 19.95 44.09 18.88 42.75 17.8 42.09 16.15 41.45 14.5 41.45 12.75L41.45 12.75Q41.45 11.1 42.05 10.13 42.65 9.15 43.34 8.8 44.05 8.45 44.4 8.45L44.4 8.45Q44.65 8.45 44.65 8.95L44.65 8.95Q44.65 16.75 49.65 16.75L49.65 16.75Q53.2 16.75 55.2 12.5L55.2 12.5Q55.95 10.85 56.59 8.35 57.25 5.85 58.34 0.55L58.34 0.55Q58.8-1.6 58.84-1.9L58.84-1.9 60.34-8.8 60.3-8.8Q59.09-6.3 57.45-4.17 55.8-2.05 54.2-0.78 52.59 0.5 51.59 0.5L51.59 0.5Q50.5 0.5 50.07-1.18 49.65-2.85 49.7-5.25L49.7-5.25 50.09-17.75Q50.15-18.15 50.15-18.85L50.15-18.85Q50.15-19.65 49.97-20.05 49.8-20.45 49.3-20.45L49.3-20.45Q48.65-20.45 47.84-19.6 47.05-18.75 46.45-17.4L46.45-17.4Q46.15-16.55 45.8-16.55L45.8-16.55Q45.4-16.55 45.4-17.15L45.4-17.15Q45.4-18.4 46.3-20 47.2-21.6 48.57-22.7 49.95-23.8 51.2-23.8L51.2-23.8Q52.59-23.8 53.09-22.4 53.59-21 53.59-18.6L53.59-18.6 53.55-17 53.09-8.75 53.05-7.1Q53.05-5.5 53.27-4.8 53.5-4.1 54.09-4.1L54.09-4.1Q55.2-4.1 56.7-6.2 58.2-8.3 59.55-11.35 60.9-14.4 61.55-17.05L61.55-17.05 62.3-20.1Q62.75-21.95 64.02-22.88 65.3-23.8 66.34-23.8L66.34-23.8Q66.75-23.8 66.75-23.55L66.75-23.55Q66.75-23.3 66.57-22.85 66.4-22.4 66.3-22.2L66.3-22.2Q65.9-21.15 65.59-19.93 65.3-18.7 65-17L65-17 62.34-2.8 61.84 0.05Q61.25 3.55 60.75 5.58 60.25 7.6 59.34 9.58 58.45 11.55 56.8 13.65L56.8 13.65Q54.55 16.65 52.09 18.3 49.65 19.95 47.4 19.95L47.4 19.95ZM75.79 0.05Q75.69 0.05 75.62-0.03 75.54-0.1 75.54-0.25L75.54-0.25Q75.54-0.65 75.97-1.3 76.39-1.95 76.79-2.35L76.79-2.35Q77.64-3.1 78.07-3.63 78.49-4.15 78.84-5.15 79.19-6.15 79.54-8.1L79.54-8.1 83.54-31.35 80.14-31.35Q76.49-31.35 75.09-30.53 73.69-29.7 73.69-27.6L73.69-27.6Q73.69-26.15 74.17-25.23 74.64-24.3 74.64-24.1L74.64-24.1Q74.64-23.7 74.14-22.85 73.64-22 72.99-21.33 72.34-20.65 71.94-20.65L71.94-20.65Q71.79-20.65 71.64-20.85L71.64-20.85Q71.29-21.45 71.07-22.45 70.84-23.45 70.84-24.55L70.84-24.55Q70.84-27.55 72.34-29.85 73.84-32.15 76.59-33.43 79.34-34.7 82.99-34.7L82.99-34.7 91.59-34.7Q94.19-34.7 95.59-35.08 96.99-35.45 97.52-36.25 98.04-37.05 98.04-38.4L98.04-38.4Q98.04-39.9 97.59-40.8 97.14-41.7 97.14-41.85L97.14-41.85Q97.14-42.2 97.64-43.05 98.14-43.9 98.77-44.6 99.39-45.3 99.79-45.3L99.79-45.3Q100.04-45.3 100.09-45.15L100.09-45.15Q100.99-43.7 100.99-41.25L100.99-41.25Q100.99-38.3 99.49-36.05 97.99-33.8 95.22-32.58 92.44-31.35 88.74-31.35L88.74-31.35 87.19-31.35 82.79-5.6Q82.69-4.8 82.44-4.33 82.19-3.85 81.74-3.3L81.74-3.3 81.74-3.2Q82.64-2.85 83.74-2.85L83.74-2.85Q84.39-2.85 85.02-3.1 85.64-3.35 85.84-3.35L85.84-3.35Q86.14-3.35 86.14-3.1L86.14-3.1Q86.14-2.7 85.74-2.25L85.74-2.25Q84.64-1 83.87-0.48 83.09 0.05 82.44 0.05L82.44 0.05Q81.89 0.05 80.59-0.35L80.59-0.35Q79.19-0.75 78.64-0.75L78.64-0.75Q77.94-0.75 76.74-0.25L76.74-0.25Q75.94 0.05 75.79 0.05L75.79 0.05ZM95.94 0.5Q95.59 0.5 95.59 0.25L95.59 0.25Q95.64-0.05 95.92-1.03 96.19-2 96.39-3L96.39-3Q96.69-4.35 98.44-14.85L98.44-14.85Q98.34-14.3 99.69-22.45L99.69-22.45Q100.64-28.15 102.27-32.65 103.89-37.15 106.79-40L106.79-40Q108.44-41.55 109.97-42.18 111.49-42.8 113.24-43.05L113.24-43.05Q113.84-43.1 114.49-43.35 115.14-43.6 115.24-43.6L115.24-43.6Q115.59-43.6 115.59-43.2L115.59-43.2Q115.59-42.65 114.69-41.75L114.69-41.75Q114.24-41.3 113.84-41.15 113.44-41 113.02-40.95 112.59-40.9 112.34-40.85L112.34-40.85Q110.94-40.65 109.97-40.08 108.99-39.5 107.94-38.25L107.94-38.25Q105.94-35.75 105.02-32.48 104.09-29.2 103.29-24.25L103.29-24.25Q103.09-22.65 102.94-21.9L102.94-21.9 101.84-14.9 101.89-14.9Q104.24-18.95 106.99-21.38 109.74-23.8 111.74-23.8L111.74-23.8Q113.84-23.8 113.84-20.75L113.84-20.75Q113.84-19.35 113.44-17.15L113.44-17.15Q112.49-12.4 112.49-12.4L112.49-12.4Q111.04-5.05 111.04-3.95L111.04-3.95Q111.04-3.05 111.74-3.05L111.74-3.05Q112.59-3.05 113.29-4.17 113.99-5.3 114.79-7.15L114.79-7.15Q114.84-7.2 114.97-7.45 115.09-7.7 115.29-7.7L115.29-7.7Q115.64-7.7 115.64-7.1L115.64-7.1 115.54-6.3Q115.19-4.5 114.12-2.93 113.04-1.35 111.72-0.43 110.39 0.5 109.29 0.5L109.29 0.5Q107.49 0.5 107.49-2.35L107.49-2.35Q107.49-3.75 107.82-5.65 108.14-7.55 108.74-10.4L108.74-10.4Q109.34-13.25 109.67-15.05 109.99-16.85 110.04-18.3L110.04-18.3Q110.04-19.25 109.89-19.6 109.74-19.95 109.04-19.95L109.04-19.95Q107.49-19.95 105.72-17.93 103.94-15.9 102.54-12.95 101.14-10 100.64-7.45L100.64-7.45 99.84-3.1Q99.64-1.8 98.34-0.65 97.04 0.5 95.94 0.5L95.94 0.5ZM123.29 0.5Q121.19 0.5 120.11-1.13 119.04-2.75 119.04-5.65L119.04-5.65Q119.04-9.7 120.99-13.95 122.94-18.2 125.81-21 128.69-23.8 131.29-23.8L131.29-23.8Q133.24-23.8 134.29-22.08 135.34-20.35 135.34-17.55L135.34-17.55Q135.34-13.8 133.51-9.55 131.69-5.3 128.89-2.4 126.09 0.5 123.29 0.5L123.29 0.5ZM125.74-2.8Q127.39-2.8 128.74-4.48 130.09-6.15 130.89-8.93 131.69-11.7 131.69-14.8L131.69-14.8Q131.69-20.5 128.74-20.5L128.74-20.5Q126.89-20.5 125.51-18.5 124.14-16.5 123.41-13.63 122.69-10.75 122.69-8.25L122.69-8.25Q122.69-5.85 123.41-4.33 124.14-2.8 125.74-2.8L125.74-2.8ZM140.04 0.5Q139.59 0.5 139.59 0.2L139.59 0.2Q139.59 0.05 139.81-0.53 140.04-1.1 140.44-3L140.44-3Q140.99-5.35 141.46-8.05 141.94-10.75 142.84-16.85L142.84-16.85Q143.14-18.75 143.14-19.5L143.14-19.5Q143.14-20.15 142.84-20.15L142.84-20.15Q142.34-20.15 141.74-19.35 141.14-18.55 140.29-17.15L140.29-17.15Q140.04-16.7 139.84-16.38 139.64-16.05 139.51-15.9 139.39-15.75 139.24-15.75L139.24-15.75Q138.84-15.75 138.84-16.3L138.84-16.3Q138.84-17.3 139.94-19.13 141.04-20.95 142.54-22.38 144.04-23.8 145.24-23.8L145.24-23.8Q146.04-23.8 146.39-23.08 146.74-22.35 146.74-21.25L146.74-21.25Q146.74-20.2 146.24-16.8L146.24-16.8 145.99-15.05 146.04-15.05Q148.49-19.4 150.81-21.6 153.14-23.8 155.24-23.8L155.24-23.8Q156.24-23.8 156.69-23.18 157.14-22.55 157.14-21.1L157.14-21.1Q157.14-19.7 156.69-17.15L156.69-17.15 156.44-15.75 156.54-15.75Q158.79-19.7 161.06-21.75 163.34-23.8 165.14-23.8L165.14-23.8Q167.24-23.8 167.24-20.8L167.24-20.8Q167.24-19.75 166.79-17.15L166.79-17.15 165.64-11.15Q164.39-4.8 164.39-3.95L164.39-3.95Q164.39-3.05 165.14-3.05L165.14-3.05Q165.99-3.05 166.69-4.17 167.39-5.3 168.19-7.15L168.19-7.15Q168.39-7.7 168.69-7.7L168.69-7.7Q168.99-7.7 168.99-7.1L168.99-7.1Q168.99-6.65 168.94-6.3L168.94-6.3Q168.59-4.5 167.51-2.93 166.44-1.35 165.09-0.43 163.74 0.5 162.64 0.5L162.64 0.5Q160.84 0.5 160.84-2.2L160.84-2.2Q160.84-4.25 162.09-10.2L162.09-10.2Q162.24-10.95 162.76-13.7 163.29-16.45 163.39-18.3L163.39-18.3Q163.39-19.15 163.24-19.55 163.09-19.95 162.49-19.95L162.49-19.95Q161.34-19.95 159.91-18.3 158.49-16.65 157.24-14.15 155.99-11.65 155.34-9.25L155.34-9.25 153.79-1.3Q153.74-0.7 152.66-0.1 151.59 0.5 150.94 0.5L150.94 0.5Q150.24 0.5 150.24-0.1L150.24-0.1Q150.69-2.05 151.89-8.63 153.09-15.2 153.29-18.3L153.29-18.3 153.29-18.8Q153.29-19.35 153.14-19.65 152.99-19.95 152.49-19.95L152.49-19.95Q151.14-19.95 149.46-17.88 147.79-15.8 146.46-12.83 145.14-9.85 144.74-7.45L144.74-7.45 143.94-3.1Q143.64-1.8 142.34-0.65 141.04 0.5 140.04 0.5L140.04 0.5Z" opacity="1" transform="matrix(1,0,0,1,0,0)" fill="#0023ff" class="wordmark-text-0" data-fill-palette-color="primary" id="text-0"></path></svg></g></svg></g></svg></g></svg></g><g><svg viewBox="0 0 163.6057196586884 175.2563952" height="175.2563952" width="163.6057196586884"><g><svg xmlns="http://www.w3.org/2000/svg" xmlns:xlink="http://www.w3.org/1999/xlink" version="1.1" x="0" y="0" viewBox="7.991972132854274 4.999827897287338 84.01715046955455 90.00017210271267" enable-background="new 0 0 100 100" xml:space="preserve" height="175.2563952" width="163.6057196586884" class="icon-icon-0" data-fill-palette-color="accent" id="icon-0"><path d="M91.722 45.552l-18.631-18.04c-0.021-0.021-0.05-0.028-0.073-0.046-0.023-0.019-0.036-0.046-0.061-0.062L39.317 5.15c-0.377-0.251-0.919-0.18-1.219 0.158L8.228 38.876c-0.172 0.194-0.256 0.452-0.232 0.702 0.021 0.257 0.161 0.496 0.364 0.657l4.585 3.61v27.74c0 0.313 0.112 0.58 0.338 0.751l29.914 22.477C43.36 94.936 43.551 95 43.755 95c0.046 0 0.166-0.004 0.287-0.041l42.385-13.013c0.406-0.125 0.697-0.493 0.697-0.897V45.413c0-0.238-0.116-0.475-0.31-0.667L72.049 30.15l0.473-0.58L90.42 46.901c0.176 0.17 0.407 0.264 0.651 0.264 0.253 0 0.498-0.104 0.674-0.286 0.174-0.18 0.268-0.418 0.264-0.668C92.004 45.959 91.902 45.725 91.722 45.552zM14.922 45.326l26.461 20.933c0.165 0.13 0.341 0.202 0.551 0.202 0.282 0 0.295-0.125 0.476-0.344l0.206-0.56v26.794L14.922 71.117V45.326zM41.761 64.215L10.292 39.378 38.959 7.163l32.096 21.233L41.761 64.215zM85.147 80.356L44.594 92.724V63.263l26.038-31.665 14.514 14.206V80.356z" fill="#0023ff" data-fill-palette-color="accent"></path></svg></g></svg></g></svg></g></svg></g></svg></g></svg></g><defs></defs></svg><rect width="395.52" height="247.2" fill="none" stroke="none" visibility="hidden"></rect></g></svg></g></svg>